<?xml version="1.0" standalone="no"?>
<!DOCTYPE svg PUBLIC "-//W3C//DTD SVG 20010904//EN"
 "http://www.w3.org/TR/2001/REC-SVG-20010904/DTD/svg10.dtd">
<svg version="1.0" xmlns="http://www.w3.org/2000/svg"
 width="459.000000pt" height="320.000000pt" viewBox="0 0 459.000000 320.000000"
 preserveAspectRatio="xMidYMid meet">
<g transform="translate(0.000000,320.000000) scale(0.100000,-0.100000)"
fill="#d9b44a" stroke="none">
<path d="M3614 2878 c-4 -6 -9 -23 -11 -37 -5 -42 -5 -209 0 -218 16 -25 -15
-33 -153 -36 -122 -3 -148 -2 -164 12 -11 9 -16 11 -13 5 4 -7 0 -15 -9 -18
-8 -3 -12 -10 -9 -16 3 -5 1 -10 -5 -10 -14 0 -12 -1442 2 -1451 5 -3 12 -26
15 -49 4 -24 12 -55 19 -69 7 -13 10 -29 7 -34 -3 -6 -1 -7 4 -4 13 8 26 -20
16 -35 -3 -6 -1 -8 5 -4 6 3 13 -3 17 -14 4 -11 11 -18 16 -15 5 4 9 2 9 -3 0
-13 88 -100 95 -94 3 3 5 0 5 -7 0 -7 5 -9 10 -6 6 3 15 3 22 -1 8 -5 6 -10
-8 -16 -14 -6 -11 -7 9 -3 16 3 26 2 24 -2 -3 -4 13 -9 36 -11 22 -1 47 -8 54
-13 7 -6 49 -10 95 -9 113 2 129 4 157 19 20 11 25 11 32 0 6 -11 9 -10 15 4
3 9 14 17 24 17 11 0 22 5 26 11 3 6 15 9 25 6 11 -3 17 -1 14 3 -6 10 54 32
65 25 5 -3 12 0 16 6 4 8 3 9 -4 5 -18 -11 -14 9 3 24 11 9 14 22 8 49 -3 20
-7 43 -8 53 -1 9 -6 22 -12 30 -5 7 -23 50 -38 96 -23 66 -32 81 -44 76 -9 -4
-24 -7 -34 -8 -10 0 -16 -5 -13 -12 2 -6 -5 -11 -17 -11 -41 -1 -48 -3 -42
-13 3 -6 -1 -7 -9 -4 -9 3 -13 11 -9 17 3 6 1 7 -6 3 -6 -4 -9 -11 -6 -16 8
-13 -54 -23 -69 -11 -9 7 -16 7 -26 -2 -8 -8 -11 -8 -7 -1 4 7 0 15 -9 18 -10
4 -13 2 -8 -7 4 -6 -6 2 -23 18 -23 23 -29 37 -27 60 3 22 1 26 -6 15 -9 -13
-10 -13 -11 0 -4 34 -6 666 -3 675 4 10 265 11 291 1 7 -3 13 -1 13 5 0 5 17
9 39 8 63 -4 69 9 72 156 3 115 1 129 -16 141 -14 11 -63 14 -209 14 l-191 0
0 163 c0 96 4 165 10 169 15 11 128 9 145 -2 11 -7 11 -10 2 -10 -10 0 -10 -5
-2 -20 6 -11 10 -40 9 -63 -4 -81 21 -88 79 -22 22 25 44 45 49 45 15 0 44 36
36 43 -3 4 1 7 10 7 10 0 17 4 17 10 0 17 33 49 43 43 6 -3 7 -1 4 4 -4 6 0
16 8 23 12 10 15 40 15 145 0 115 -2 134 -18 148 -16 15 -47 17 -230 17 -148
0 -213 -3 -218 -12z m255 -18 l187 0 -1 -130 -1 -130 -40 -42 c-22 -24 -70
-75 -107 -115 l-67 -71 0 89 0 89 -105 0 -105 0 0 -195 0 -196 198 1 c108 0
202 1 207 0 6 0 10 -50 10 -130 l0 -130 -207 0 -208 0 0 -354 c0 -394 1 -398
66 -456 35 -30 41 -32 98 -28 34 2 90 16 126 31 35 14 65 25 67 24 1 -2 20
-61 42 -133 44 -146 46 -138 -39 -176 -114 -51 -243 -72 -354 -58 -186 23
-324 164 -356 365 -6 34 -10 357 -10 753 l0 692 178 0 177 0 -3 149 c-3 137
-2 150 15 154 10 3 24 3 31 1 8 -2 98 -4 201 -4z"/>
<path d="M3316 1107 c3 -10 9 -15 12 -12 3 3 0 11 -7 18 -10 9 -11 8 -5 -6z"/>
<path d="M3396 928 c3 -5 10 -6 15 -3 13 9 11 12 -6 12 -8 0 -12 -4 -9 -9z"/>
<path d="M3458 2603 c12 -2 32 -2 45 0 12 2 2 4 -23 4 -25 0 -35 -2 -22 -4z"/>
<path d="M3927 2425 c-10 -23 12 -29 35 -8 20 16 21 17 15 1 -9 -24 0 -23 13
1 8 15 7 19 -5 17 -8 -1 -21 -8 -27 -14 -17 -17 -33 -15 -18 3 7 9 8 15 2 15
-5 0 -12 -7 -15 -15z"/>
<path d="M3223 2280 c0 -25 2 -35 4 -22 2 12 2 32 0 45 -2 12 -4 2 -4 -23z"/>
<path d="M2356 2259 c-43 -5 -97 -15 -120 -24 -32 -12 -48 -14 -69 -6 -21 8
-26 8 -21 0 4 -8 -1 -9 -17 -4 -18 5 -21 4 -9 -4 8 -6 24 -8 35 -5 19 5 19 4
2 -6 -10 -7 -25 -9 -33 -6 -9 3 -12 1 -9 -4 3 -6 -1 -10 -9 -10 -9 0 -16 -4
-16 -9 0 -5 -10 -13 -22 -17 -38 -12 -155 -143 -141 -158 3 -3 1 -6 -5 -6 -6
0 -14 -17 -18 -37 -4 -21 -12 -46 -19 -56 -8 -11 -12 -45 -10 -90 2 -51 1 -62
-5 -37 l-7 35 -2 -42 c0 -25 4 -43 11 -45 9 -3 8 -12 -5 -31 -9 -14 -17 -30
-17 -34 0 -4 5 0 11 10 16 27 26 20 22 -15 -3 -25 -2 -30 6 -18 9 12 11 10 11
-12 0 -15 6 -31 14 -35 8 -4 16 -19 18 -33 2 -19 8 -24 23 -22 11 2 17 1 13
-3 -4 -4 4 -17 18 -28 14 -10 23 -25 21 -32 -3 -6 1 -12 9 -12 7 0 10 5 7 10
-4 6 -1 7 6 3 7 -5 10 -14 7 -22 -3 -7 0 -11 7 -8 7 2 38 -9 70 -26 32 -16 72
-32 90 -35 17 -4 34 -11 38 -16 3 -6 10 -9 15 -8 20 3 35 -1 30 -10 -9 -14 31
-20 45 -7 9 8 11 7 7 -4 -4 -12 3 -16 34 -16 22 -1 45 -7 51 -13 6 -6 19 -11
30 -11 10 0 16 -4 13 -9 -3 -4 5 -7 17 -6 24 2 97 -34 97 -47 0 -5 5 -6 12 -2
7 4 8 3 4 -4 -4 -7 -2 -12 4 -12 21 0 32 -52 20 -93 -6 -21 -15 -35 -20 -32
-5 3 -15 -3 -22 -12 -7 -10 -20 -20 -28 -23 -31 -10 -230 -11 -230 -2 0 6 -9
8 -20 5 -11 -3 -27 0 -35 7 -8 6 -19 9 -25 5 -5 -3 -10 -1 -10 4 0 6 -9 11
-21 11 -11 0 -30 5 -42 12 -12 7 -26 13 -32 13 -5 1 -29 10 -52 21 -45 20 -58
40 -20 29 l22 -6 -23 14 c-12 7 -19 16 -16 20 4 4 2 7 -5 7 -7 0 -11 -7 -8
-15 4 -8 2 -17 -3 -20 -9 -6 -14 8 -11 27 0 4 -5 5 -13 2 -7 -3 -19 2 -26 11
-7 8 -18 15 -25 15 -16 0 -60 -41 -61 -57 -3 -40 -5 -44 -16 -37 -6 4 -8 3 -5
-4 4 -5 4 -18 0 -28 -6 -16 -7 -15 -21 2 -13 18 -14 18 -7 -4 4 -15 -2 -39
-19 -71 -14 -27 -23 -51 -21 -55 3 -3 0 -2 -6 3 -8 6 -8 16 1 32 11 23 10 23
-4 5 -11 -13 -16 -15 -16 -6 0 7 -3 10 -7 7 -4 -4 3 -21 15 -37 12 -16 22 -33
22 -39 0 -5 6 -12 13 -14 9 -4 9 -8 -2 -15 -8 -6 -9 -12 -3 -16 6 -3 13 -2 17
3 3 6 19 2 38 -10 18 -10 40 -22 50 -25 14 -5 15 -9 5 -22 -12 -13 -10 -14 10
-3 18 10 27 10 38 1 7 -7 12 -15 10 -19 -3 -4 5 -7 17 -8 36 -2 102 -30 86
-36 -8 -4 -1 -3 15 0 22 5 27 3 21 -7 -5 -8 -4 -11 3 -6 6 3 13 2 17 -4 3 -5
11 -10 16 -10 6 0 8 4 5 9 -3 4 15 3 40 -2 32 -8 41 -13 29 -17 -32 -11 250
-11 300 0 26 6 63 11 81 12 19 1 34 6 34 11 0 5 9 7 20 4 11 -3 38 3 60 14 21
10 45 19 53 19 8 0 22 10 31 22 13 20 17 21 28 8 7 -8 20 -16 28 -18 11 -2 11
1 -2 11 -18 14 -25 39 -10 34 5 -1 20 11 34 28 25 29 27 29 45 12 16 -14 20
-14 20 -2 0 8 -4 12 -8 9 -4 -2 -10 0 -14 6 -8 13 26 71 37 64 5 -3 7 -2 6 3
-4 14 35 104 41 95 3 -6 6 40 6 101 0 62 -3 117 -8 124 -4 6 -4 19 0 29 4 12
3 15 -5 10 -8 -5 -12 1 -12 18 0 14 -4 28 -10 31 -5 3 -10 11 -10 16 0 6 5 7
12 3 7 -5 8 -3 4 5 -5 7 -10 10 -14 7 -5 -6 -63 57 -65 71 -1 11 -24 33 -34
33 -4 0 -26 16 -47 35 -40 35 -52 43 -42 26 4 -5 -15 1 -41 13 -27 13 -65 29
-85 35 -21 7 -38 16 -38 20 0 4 -6 9 -12 10 -7 1 -24 3 -38 5 -28 4 -50 11
-98 32 -18 8 -40 14 -48 14 -8 0 -12 5 -9 10 9 14 -8 12 -24 -2 -11 -11 -12
-10 -6 1 6 11 3 13 -12 9 -24 -6 -48 6 -48 23 0 7 -7 14 -15 16 -13 4 -13 3 0
-6 13 -9 13 -11 -2 -11 -23 0 -34 20 -17 32 11 8 10 9 -3 4 -17 -5 -32 8 -33
29 -1 6 -5 18 -9 27 -11 25 19 64 65 82 22 9 44 14 49 11 4 -3 29 -1 54 4 25
5 46 5 46 1 0 -3 15 -6 33 -6 50 0 130 -23 139 -41 3 -4 3 -3 2 4 -2 8 13 6
47 -7 27 -11 52 -20 55 -20 3 0 2 -5 -2 -12 -4 -6 -3 -8 4 -4 12 7 81 -24 82
-37 0 -5 -4 -5 -10 -2 -5 3 -10 1 -10 -4 0 -6 7 -11 15 -11 8 0 15 5 15 11 0
7 9 9 21 6 12 -3 19 -3 16 0 -3 2 6 27 19 54 23 45 34 54 57 50 5 -1 6 3 2 9
-3 6 -11 8 -16 5 -5 -3 -6 1 -3 9 3 9 11 13 17 9 5 -3 7 -1 4 4 -8 13 27 86
37 76 4 -4 4 0 1 9 -4 9 -2 25 4 36 6 11 7 23 3 27 -4 3 -7 12 -7 18 0 5 -7
12 -15 14 -13 4 -13 3 0 -7 13 -10 13 -11 0 -7 -8 2 -21 14 -27 28 -9 17 -13
19 -13 7 0 -14 -11 -11 -66 18 -36 19 -74 34 -85 34 -10 0 -19 5 -19 10 0 6
-3 9 -7 9 -19 -3 -34 2 -29 10 3 4 -11 7 -32 6 -20 -1 -41 1 -47 5 -27 20
-191 31 -299 19z m327 -49 c80 -20 246 -88 282 -115 19 -15 18 -19 -40 -136
-33 -66 -63 -123 -66 -125 -4 -2 -47 14 -96 35 -151 66 -216 82 -330 83 -88 1
-106 -2 -137 -22 -59 -36 -81 -97 -52 -149 24 -44 95 -78 301 -146 216 -71
289 -108 362 -182 99 -102 124 -296 58 -441 -32 -70 -127 -163 -202 -198 -94
-42 -211 -64 -356 -64 -139 0 -231 17 -357 67 -76 30 -200 103 -215 127 -7 12
5 44 50 136 33 66 61 120 63 120 2 0 18 -12 35 -26 46 -39 177 -101 264 -126
111 -32 270 -32 330 0 55 29 73 57 73 113 0 42 -4 51 -39 82 -54 49 -60 52
-279 123 -210 69 -302 118 -360 192 -83 105 -100 283 -39 416 30 64 104 147
162 181 53 31 157 64 236 75 93 13 262 4 352 -20z"/>
<path d="M2788 1903 c6 -2 9 -10 6 -15 -4 -7 -2 -8 5 -4 13 9 5 26 -12 25 -9
0 -8 -2 1 -6z"/>
<path d="M2825 1900 c-3 -5 -1 -10 4 -10 6 0 11 5 11 10 0 6 -2 10 -4 10 -3 0
-8 -4 -11 -10z"/>
<path d="M2120 1470 c8 -5 20 -10 25 -10 6 0 3 5 -5 10 -8 5 -19 10 -25 10 -5
0 -3 -5 5 -10z"/>
<path d="M2896 1371 c-3 -4 6 -7 19 -7 14 0 22 2 19 5 -8 8 -34 10 -38 2z"/>
<path d="M876 2249 c3 -5 -7 -9 -21 -9 -34 0 -159 -33 -163 -42 -2 -5 -8 -8
-14 -8 -18 0 -103 -44 -112 -59 -7 -11 -10 -11 -17 0 -7 12 -9 11 -9 -1 0 -16
-55 -57 -70 -53 -5 2 -17 -9 -27 -25 -10 -15 -27 -35 -38 -44 -30 -26 -33 -30
-60 -71 -14 -21 -21 -36 -15 -32 14 9 12 -7 -3 -30 -8 -11 -22 -42 -32 -70
-10 -27 -22 -55 -27 -61 -4 -6 -5 -13 -2 -17 8 -7 -6 -48 -14 -43 -8 5 -10
-23 -11 -184 -1 -128 1 -159 12 -177 5 -7 5 -13 1 -13 -3 0 -1 -7 6 -15 6 -8
9 -19 5 -24 -3 -6 0 -23 8 -38 8 -15 12 -35 9 -43 -2 -8 -1 -12 4 -7 10 9 46
-82 37 -96 -3 -6 -2 -7 4 -4 5 3 20 -12 32 -33 12 -22 27 -40 32 -40 6 0 7 -5
3 -12 -5 -7 -3 -8 6 -3 10 6 12 3 8 -13 -4 -13 -2 -20 3 -16 6 3 31 -17 57
-45 26 -28 52 -51 59 -51 6 0 16 -7 23 -15 7 -8 21 -15 32 -15 18 0 19 -2 7
-17 -13 -15 -12 -15 9 -4 12 6 22 8 22 4 0 -5 25 -19 55 -33 30 -14 53 -30 51
-36 -3 -7 3 -10 16 -6 15 4 17 7 6 14 -9 7 -8 8 5 4 10 -3 24 -6 30 -6 7 0 6
-4 -3 -10 -13 -8 -12 -10 3 -10 10 0 16 -3 14 -7 -3 -5 5 -8 18 -8 13 0 21 3
19 7 -3 4 9 6 25 5 16 -1 27 -5 25 -9 -6 -10 237 -8 281 2 21 5 38 3 45 -4 9
-8 11 -7 8 4 -2 9 3 14 13 12 9 -1 34 5 55 15 21 9 44 17 49 17 18 2 75 31 75
38 0 5 5 8 11 8 5 0 7 -4 4 -10 -3 -6 1 -7 9 -4 9 3 13 10 10 15 -5 9 9 13 33
10 7 -1 10 5 7 13 -4 11 0 13 15 9 13 -3 21 -1 21 6 0 7 -6 9 -12 5 -10 -5
-10 -4 -2 5 6 7 20 13 31 14 13 0 19 6 16 14 -4 9 0 11 11 7 11 -4 16 -2 14 7
-2 8 3 13 10 12 6 -2 12 4 12 12 0 8 8 15 17 15 9 0 14 3 10 6 -9 9 25 44 37
37 6 -3 8 -2 3 2 -4 5 0 17 9 26 15 17 15 20 -1 45 -11 18 -13 24 -4 19 8 -3
5 1 -5 9 -11 9 -25 16 -30 16 -6 0 -25 14 -41 32 -17 18 -24 28 -16 23 10 -5
12 -4 7 3 -4 7 -13 12 -19 12 -7 0 -32 18 -57 40 -38 33 -41 39 -20 34 22 -4
22 -3 5 5 -12 5 -25 5 -32 -1 -7 -5 -17 -7 -22 -3 -6 3 -9 0 -6 -7 3 -8 -8
-21 -25 -31 -16 -10 -30 -23 -30 -29 0 -5 -7 -8 -14 -5 -10 4 -13 1 -10 -7 3
-7 -6 -21 -20 -30 -15 -9 -26 -14 -26 -11 0 4 -7 -1 -16 -9 -8 -9 -20 -14 -25
-11 -5 4 -9 1 -9 -4 0 -6 -9 -11 -20 -11 -11 0 -20 -4 -20 -8 0 -12 -67 -30
-118 -31 -24 0 -48 -3 -53 -7 -5 -3 -9 0 -9 6 0 7 -6 8 -18 1 -13 -7 -26 -6
-43 3 -40 20 -61 27 -54 16 3 -6 2 -10 -4 -10 -5 0 -13 5 -16 10 -3 6 -14 10
-23 10 -9 0 -33 12 -54 26 -28 20 -37 32 -33 45 4 12 -1 22 -15 29 -11 6 -20
7 -19 3 4 -25 -4 -22 -26 11 -13 20 -22 43 -19 51 5 11 2 13 -10 9 -9 -3 -16
-4 -16 0 0 5 59 23 120 36 19 4 44 11 54 15 15 7 18 5 12 -6 -4 -8 -1 -6 7 4
8 9 19 17 25 17 6 0 33 7 59 16 26 9 68 17 93 17 33 0 39 2 20 7 -24 6 -23 7
10 13 19 4 60 14 90 23 30 9 68 18 84 20 17 2 33 9 37 15 4 6 12 8 18 4 7 -4
18 -1 26 5 8 7 15 10 15 6 0 -3 16 3 37 14 28 15 41 17 56 9 13 -7 17 -8 13
-1 -7 11 8 17 69 28 22 4 46 12 54 18 12 9 13 8 6 -4 -8 -12 -5 -12 16 1 13 9
39 20 57 24 18 4 36 14 39 22 5 12 7 12 14 1 5 -8 7 2 6 24 -1 20 -6 40 -10
44 -4 4 -7 21 -7 38 0 25 2 28 11 16 9 -12 10 -12 5 3 -3 10 -6 21 -6 23 0 3
-5 2 -10 -1 -6 -4 -10 6 -10 22 -1 15 -7 39 -14 52 -7 13 -11 33 -8 44 3 13 1
18 -5 14 -14 -9 -24 17 -17 41 5 15 4 15 -6 2 -9 -12 -11 -10 -7 13 2 15 2 25
-1 23 -2 -3 -26 23 -52 57 -32 42 -44 65 -36 70 7 5 6 7 -4 5 -17 -3 -62 37
-52 47 4 3 -1 3 -10 0 -10 -4 -21 1 -30 14 -8 12 -18 18 -21 14 -4 -3 -7 1 -7
10 0 9 -6 14 -13 11 -7 -2 -28 7 -47 21 -19 14 -47 25 -63 25 -16 0 -26 4 -22
10 3 6 -2 11 -12 12 -32 2 -38 3 -48 9 -5 3 -23 6 -39 7 -16 1 -34 6 -40 12
-15 12 -278 11 -270 -1z m303 -35 c244 -55 401 -192 480 -419 24 -69 45 -205
34 -216 -5 -4 -156 -48 -338 -99 -181 -51 -412 -115 -512 -144 -101 -28 -183
-54 -183 -58 0 -24 93 -137 140 -169 81 -57 139 -74 250 -74 147 0 246 42 364
153 24 23 47 42 51 42 3 0 36 -29 73 -63 37 -35 82 -78 101 -94 l35 -30 -68
-64 c-173 -163 -343 -229 -593 -229 -466 1 -776 328 -750 790 21 369 244 620
607 683 63 11 246 6 309 -9z m-709 -154 c0 -5 -5 -10 -11 -10 -5 0 -7 5 -4 10
3 6 8 10 11 10 2 0 4 -4 4 -10z m-79 -87 c-5 -10 -17 -27 -26 -38 -16 -19 -16
-19 -4 5 13 27 29 50 36 50 2 0 -1 -8 -6 -17z m399 -802 c0 -6 -4 -13 -10 -16
-5 -3 -10 1 -10 9 0 9 5 16 10 16 6 0 10 -4 10 -9z"/>
<path d="M486 2012 c-2 -4 4 -8 14 -8 10 0 16 4 14 8 -3 4 -9 8 -14 8 -5 0
-11 -4 -14 -8z"/>
<path d="M905 1941 c-153 -38 -249 -153 -279 -335 -12 -79 -12 -86 3 -81 9 2
173 50 365 104 192 55 351 102 353 105 3 3 -8 28 -23 56 -57 105 -167 161
-312 159 -43 -1 -90 -4 -107 -8z m178 -18 c21 -3 47 -15 58 -26 17 -19 19 -19
13 -3 -7 17 -5 17 23 2 17 -8 34 -12 38 -8 5 4 5 1 1 -5 -4 -8 -1 -13 8 -13
10 0 13 -6 9 -17 -4 -11 -3 -14 6 -9 12 8 45 -26 69 -73 13 -25 7 -45 -7 -22
-7 10 -9 10 -14 -2 -3 -7 -27 -19 -54 -26 -87 -22 -128 -34 -138 -42 -6 -5
-20 -8 -30 -8 -44 -1 -71 -7 -83 -19 -8 -7 -18 -10 -23 -6 -6 3 -15 1 -22 -5
-22 -18 -100 -31 -114 -19 -10 8 -12 7 -7 -5 7 -18 -36 -34 -57 -21 -7 4 -9 3
-6 -3 4 -6 -5 -13 -21 -16 -15 -3 -39 -9 -53 -12 -21 -6 -27 -3 -32 14 -3 12
-1 21 4 21 4 0 6 7 3 15 -3 8 1 24 10 36 11 17 13 26 4 36 -13 17 4 17 21 1
11 -10 11 -8 0 9 -12 20 -11 27 5 58 10 19 23 32 29 28 6 -3 7 -1 3 6 -9 14
44 68 94 95 34 19 34 19 20 1 -13 -17 -13 -18 0 -10 8 4 22 14 32 22 27 23
137 37 211 26z"/>
<path d="M1188 1723 c6 -2 18 -2 25 0 6 3 1 5 -13 5 -14 0 -19 -2 -12 -5z"/>
<path d="M876 1667 c3 -10 9 -15 12 -12 3 3 0 11 -7 18 -10 9 -11 8 -5 -6z"/>
<path d="M910 1649 c0 -5 5 -7 10 -4 6 3 10 8 10 11 0 2 -4 4 -10 4 -5 0 -10
-5 -10 -11z"/>
<path d="M1276 1908 c3 -5 10 -6 15 -3 13 9 11 12 -6 12 -8 0 -12 -4 -9 -9z"/>
<path d="M1296 1883 c-6 -14 -5 -15 5 -6 7 7 10 15 7 18 -3 3 -9 -2 -12 -12z"/>
<path d="M1416 1132 c-3 -5 1 -9 9 -9 8 0 12 4 9 9 -3 4 -7 8 -9 8 -2 0 -6 -4
-9 -8z"/>
<path d="M1600 1050 c-9 -6 -10 -10 -3 -10 6 0 15 5 18 10 8 12 4 12 -15 0z"/>
<path d="M2196 2245 c-4 -13 -2 -14 14 -5 23 13 26 20 6 20 -8 0 -16 -7 -20
-15z"/>
<path d="M1951 2144 c0 -11 3 -14 6 -6 3 7 2 16 -1 19 -3 4 -6 -2 -5 -13z"/>
<path d="M2987 2149 c7 -7 15 -10 18 -7 3 3 -2 9 -12 12 -14 6 -15 5 -6 -5z"/>
<path d="M1981 2124 c0 -11 3 -14 6 -6 3 7 2 16 -1 19 -3 4 -6 -2 -5 -13z"/>
<path d="M496 2115 c-4 -13 -2 -14 14 -5 23 13 26 20 6 20 -8 0 -16 -7 -20
-15z"/>
<path d="M1877 1940 c-6 -21 -9 -22 -17 -10 -6 9 -10 10 -10 3 0 -17 14 -23
29 -14 7 5 11 17 9 27 -3 16 -5 15 -11 -6z"/>
<path d="M1850 1895 c0 -5 5 -17 10 -25 5 -8 10 -10 10 -5 0 6 -5 17 -10 25
-5 8 -10 11 -10 5z"/>
<path d="M2280 1865 c0 -8 4 -15 10 -15 5 0 7 7 4 15 -4 8 -8 15 -10 15 -2 0
-4 -7 -4 -15z"/>
<path d="M2924 1860 c0 -13 4 -16 10 -10 7 7 7 13 0 20 -6 6 -10 3 -10 -10z"/>
<path d="M4013 1823 c9 -2 23 -2 30 0 6 3 -1 5 -18 5 -16 0 -22 -2 -12 -5z"/>
<path d="M3224 1640 c0 -69 1 -97 3 -62 2 34 2 90 0 125 -2 34 -3 6 -3 -63z"/>
<path d="M1761 1694 c0 -11 3 -14 6 -6 3 7 2 16 -1 19 -3 4 -6 -2 -5 -13z"/>
<path d="M2648 1643 c7 -3 16 -2 19 1 4 3 -2 6 -13 5 -11 0 -14 -3 -6 -6z"/>
<path d="M2944 1476 c1 -8 5 -18 8 -22 4 -3 5 1 4 10 -1 8 -5 18 -8 22 -4 3
-5 -1 -4 -10z"/>
<path d="M1935 1450 c-3 -5 -1 -10 4 -10 6 0 11 5 11 10 0 6 -2 10 -4 10 -3 0
-8 -4 -11 -10z"/>
<path d="M3223 1400 c0 -25 2 -35 4 -22 2 12 2 32 0 45 -2 12 -4 2 -4 -23z"/>
<path d="M1170 1390 c-23 -6 -22 -7 10 -12 41 -7 42 -6 26 7 -6 6 -22 8 -36 5z"/>
<path d="M3075 1290 c-3 -5 -1 -10 4 -10 6 0 11 5 11 10 0 6 -2 10 -4 10 -3 0
-8 -4 -11 -10z"/>
<path d="M3665 1259 c-4 -6 -5 -12 -2 -15 2 -3 7 2 10 11 7 17 1 20 -8 4z"/>
<path d="M240 1254 c0 -5 7 -18 15 -28 8 -11 15 -16 15 -10 0 5 -7 18 -15 28
-8 11 -15 16 -15 10z"/>
<path d="M2560 1233 c0 -6 8 -17 18 -24 16 -13 16 -13 2 6 -8 11 -16 22 -17
24 -2 2 -3 0 -3 -6z"/>
<path d="M3041 1214 c0 -11 3 -14 6 -6 3 7 2 16 -1 19 -3 4 -6 -2 -5 -13z"/>
<path d="M1315 1160 c-3 -6 1 -7 9 -4 18 7 21 14 7 14 -6 0 -13 -4 -16 -10z"/>
<path d="M1850 1140 c-9 -6 -10 -10 -3 -10 6 0 15 5 18 10 8 12 4 12 -15 0z"/>
<path d="M3031 1104 c0 -11 3 -14 6 -6 3 7 2 16 -1 19 -3 4 -6 -2 -5 -13z"/>
<path d="M2237 1099 c7 -7 15 -10 18 -7 3 3 -2 9 -12 12 -14 6 -15 5 -6 -5z"/>
<path d="M3241 1085 c1 -19 18 -51 18 -35 0 8 -4 22 -9 30 -5 8 -9 11 -9 5z"/>
<path d="M332 1040 c7 -10 14 -18 15 -16 6 6 -9 36 -18 36 -5 0 -4 -9 3 -20z"/>
<path d="M3568 723 c6 -2 18 -2 25 0 6 3 1 5 -13 5 -14 0 -19 -2 -12 -5z"/>
</g>
</svg>

